# xmcd CD database file
#
# Track frame offsets:
#	150
#	6485
#	20155
#	41892
#	58962
#	81750
#	100622
#	109050
#	128242
#	147580
#	166172
#	180972
#	208500
#
# Disc length: 3007 seconds
#
# Revision: 0
# Processed by: cddbd v1.5.1PL0 Copyright (c) Steve Scherf et al.
# Submitted via: CDex 1.51
#
DISCID=b40bbd0d
DTITLE=LOOSAR POP MART MAMILY - 12 LOOSARS
DYEAR=1999
DGENRE=Rock
TTITLE0=JUNGLE
TTITLE1=WELCOME
TTITLE2=SLIDER
TTITLE3=PEAK
TTITLE4=WALK THIS WAY
TTITLE5=INNOCENT SKY
TTITLE6=BREAK TIME
TTITLE7=MACHINERY
TTITLE8=RETIRED LIFE
TTITLE9=CHERUB ROCK
TTITLE10=YOU
TTITLE11=NOWHERE...WHERE...
TTITLE12=Special Thanks to
EXTD=YEAR: 1999
EXTT0=
EXTT1=
EXTT2=
EXTT3=
EXTT4=
EXTT5=
EXTT6=
EXTT7=
EXTT8=
EXTT9=
EXTT10=
EXTT11=
EXTT12=
PLAYORDER=
